<?xml version="1.0" encoding="UTF-8" standalone="no"?>
<!DOCTYPE svg PUBLIC "-//W3C//DTD SVG 1.1//EN" "http://www.w3.org/Graphics/SVG/1.1/DTD/svg11.dtd"><svg width="236" height="36" viewBox="0 0 236 36" version="1.1" xmlns="http://www.w3.org/2000/svg" xmlns:xlink="http://www.w3.org/1999/xlink"  fill="currentColor">
  <path d="M21.246,0.557l0,14.312l17.162,0l0,-14.312l4.634,0l-16.667,34.212l-4.633,0l16.666,-16.041l-17.162,0l-16.667,16.041l-4.579,0l16.667,-34.212l4.579,0Z" />
  <path d="M69.378,18.729l-13.791,0l-16.667,12.337l15.371,0l0,3.704l-19.95,0l16.666,-34.212l19.163,0l0,3.704l-14.583,0l0,10.813l13.791,0l0,3.654Z" />
  <path d="M102.558,0.557l-16.667,34.212l-4.579,0l16.667,-30.508l-16.479,0l-16.667,30.508l-4.579,0l16.666,-34.212l25.638,0Z" />
  <path d="M134.055,0.557l-16.667,34.212l-4.633,0l16.666,-30.508l-11.737,0l0,10.358c0,7.409 -16.984,15.684 -21.984,18.934c-1.316,0.808 -3.37,1.625 -5.425,1.625l-0.579,-3.555c1.421,-0.254 2.896,-1.066 3.738,-1.829c2.841,-2.687 19.775,-9.341 19.775,-14.821l0,-14.416l20.846,0Z" />
  <path d="M144.811,17.867c0,7.308 -12.562,13.858 -5.35,13.858c7.267,0 28.038,-6.446 28.038,-14.212c0,-6.805 -3.684,-13.909 -11.317,-13.909c-7.583,0 -11.371,6.75 -11.371,14.263m27.534,-0.559c0,11.775 -24.092,18.021 -33.146,18.021c-9.371,0 0.716,-7.004 0.716,-17.362c0,-10.863 7,-17.967 16.475,-17.967c9.692,0 15.955,7.154 15.955,17.308" />
  <path d="M179.595,34.77l-4.525,-7.563c-1.846,-2.895 13.666,-4.775 12.558,-6.754l-0.104,0c-1,1.979 -18.667,3.809 -20.509,6.804l-4.266,7.513l-5.263,0l27.509,-17.308l-10.417,-16.905l5.312,0.001l4.688,8.02c1.312,2.234 2.312,3.959 3.262,5.788l0.159,0c1,-2.034 1.891,-3.604 3.208,-5.788l4.846,-8.02l5.262,0l-10.787,16.649l-5.613,17.563l-5.32,0Z" />
  <path d="M208.178,17.867c0,7.308 -12.558,13.858 -5.346,13.858c7.267,0 28.033,-6.446 28.033,-14.212c0,-6.805 -3.683,-13.909 -11.316,-13.909c-7.579,0 -11.371,6.75 -11.371,14.263m27.533,-0.559c0,11.775 -24.087,18.021 -33.146,18.021c-9.37,0 0.717,-7.004 0.717,-17.362c0,-10.863 7.004,-17.967 16.479,-17.967c9.688,0 15.95,7.154 15.95,17.308" />
</svg>